<?xml version="1.0" encoding="UTF-8" standalone="no"?>
<svg
   xmlns:dc="http://purl.org/dc/elements/1.1/"
   xmlns:cc="http://creativecommons.org/ns#"
   xmlns:rdf="http://www.w3.org/1999/02/22-rdf-syntax-ns#"
   xmlns:svg="http://www.w3.org/2000/svg"
   xmlns="http://www.w3.org/2000/svg"
   version="1.1"
   width="18"
   height="16"
   viewBox="0 0 18 16"
   id="svg4">
  <metadata
     id="metadata10">
    <rdf:RDF>
      <cc:Work
         rdf:about="">
        <dc:format>image/svg+xml</dc:format>
        <dc:type
           rdf:resource="http://purl.org/dc/dcmitype/StillImage" />
        <dc:title></dc:title>
      </cc:Work>
    </rdf:RDF>
  </metadata>
  <defs
     id="defs8" />
  <path
     style="fill:#01f8c4;fill-opacity:1"
     d="m 9.0000003,6.0000001e-8 c -4.418,0 -8,3.581999739999999 -8,7.999999739999999 0,4.4180002 3.582,8.0000002 8,8.0000002 C 13.418,16 17,12.418 17,7.9999998 17,3.5819998 13.418,6.0000001e-8 9.0000003,6.0000001e-8 Z M 6.0000003,7.9999998 c 0,-1.657 1.343,-3 3,-3 1.6569997,0 2.9999997,1.343 2.9999997,3 C 12,9.6569998 10.657,11 9.0000004,11 c -1.657,0 -3,-1.3430002 -3.0000001,-3.0000002 z M 15.468,10.679 v 0 L 12.696,9.5309998 c 0.196,-0.472 0.304,-0.989 0.304,-1.531 0,-0.542 -0.108,-1.059 -0.304,-1.531 l 2.772,-1.148 c 0.342,0.825 0.532,1.73 0.532,2.679 0,0.949 -0.189,1.854 -0.532,2.6790002 z M 11.679,1.5319998 v 0 0 l -1.148,2.772 c -0.471999,-0.196 -0.9889996,-0.304 -1.5309996,-0.304 -0.542,0 -1.059,0.108 -1.531,0.304 l -1.148,-2.772 c 0.825,-0.3419999 1.73,-0.53199994 2.679,-0.53199994 0.9490003,0 1.8539996,0.18900004 2.6789996,0.53199994 z m -9.1469996,3.789 2.772,1.148 c -0.196,0.472 -0.304,0.989 -0.304,1.531 0,0.542 0.1079999,1.059 0.304,1.531 l -2.772,1.1480002 c -0.342,-0.8250002 -0.532,-1.7300002 -0.532,-2.6790002 0,-0.949 0.189,-1.854 0.532,-2.679 z M 6.3210003,14.468 l 1.148,-2.772 c 0.472,0.196 0.9890001,0.304 1.5310001,0.304 0.542,0 1.0590006,-0.108 1.5309996,-0.304 l 1.148,2.772 C 10.854,14.81 9.9490007,15 9.0000004,15 c -0.949,0 -1.854,-0.189 -2.6790001,-0.532 z"
     id="path816" />
</svg>
